<svg xmlns="http://www.w3.org/2000/svg" xmlns:xlink="http://www.w3.org/1999/xlink" width="278" height="34" viewBox="0 0 278 34">
  <defs>
    <clipPath id="clip-path">
      <rect id="Rectángulo_33" data-name="Rectángulo 33" width="278" height="34" fill="none"/>
    </clipPath>
  </defs>
  <g id="LOGO" transform="translate(0 0)">
    <g id="Grupo_1" data-name="Grupo 1" transform="translate(0 0)" clip-path="url(#clip-path)">
      <path id="Trazado_1" data-name="Trazado 1" d="M0,0H25.808V7.192H10.489v5.832H23.577v6.753H10.489V33.456H0ZM31.154,0h9.368V6.317H31.154Zm0,9.21h9.368V33.452H31.154Zm15.364,0h8.735v3.942a12.9,12.9,0,0,1,3.958-3.441A10.519,10.519,0,0,1,64.1,8.677a8.035,8.035,0,0,1,6.087,2.291q2.2,2.285,2.2,7.079V33.456H62.963V20.127a4.786,4.786,0,0,0-.852-3.224,3.024,3.024,0,0,0-2.391-.951,3.423,3.423,0,0,0-2.766,1.278c-.714.845-1.059,2.377-1.059,4.586v11.64H46.518Zm40.016,7.86-8.964-.938a9.71,9.71,0,0,1,1.463-3.662,7.919,7.919,0,0,1,2.753-2.315,11.247,11.247,0,0,1,3.553-1.09,27.931,27.931,0,0,1,4.881-.388A39.582,39.582,0,0,1,97,9.134a8.864,8.864,0,0,1,4.264,1.953A6.9,6.9,0,0,1,103.145,14a10.5,10.5,0,0,1,.688,3.584V28.295a12.163,12.163,0,0,0,.225,2.68A11.983,11.983,0,0,0,105,33.456H96.2a9.519,9.519,0,0,1-.679-1.428,9.973,9.973,0,0,1-.326-1.547,11.829,11.829,0,0,1-3.665,2.505A15.194,15.194,0,0,1,85.743,34c-2.91,0-5.133-.667-6.637-2.01a6.347,6.347,0,0,1-2.274-4.95,6.487,6.487,0,0,1,1.633-4.54q1.638-1.78,6.039-2.646c3.514-.693,5.8-1.2,6.838-1.473a32.828,32.828,0,0,0,3.32-1.1,3.223,3.223,0,0,0-.712-2.393,3.528,3.528,0,0,0-2.514-.687,6.543,6.543,0,0,0-3.448.722,3.946,3.946,0,0,0-1.454,2.154m8.128,4.879q-1.932.688-4.025,1.215a9.1,9.1,0,0,0-3.619,1.485A2.346,2.346,0,0,0,87,28.138a3.279,3.279,0,0,0,2.274.709,5.957,5.957,0,0,0,2.919-.758,4.544,4.544,0,0,0,1.9-1.841,6.069,6.069,0,0,0,.565-2.812ZM109.451,9.21h8.732v3.942a13.046,13.046,0,0,1,3.962-3.441,10.559,10.559,0,0,1,4.881-1.034,8.038,8.038,0,0,1,6.1,2.291q2.207,2.285,2.2,7.079V33.456h-9.414V20.127a4.773,4.773,0,0,0-.855-3.224,3.043,3.043,0,0,0-2.409-.951,3.428,3.428,0,0,0-2.761,1.278c-.7.845-1.048,2.377-1.048,4.586v11.64h-9.384Zm30.413,0h22.687v5.426L150.208,27.108h13.1v6.348H138.943V27.425l11.716-11.86h-10.8Zm35.852,7.86-8.98-.938a10.118,10.118,0,0,1,1.472-3.662,7.971,7.971,0,0,1,2.75-2.315,11.311,11.311,0,0,1,3.554-1.09,28.061,28.061,0,0,1,4.873-.388,39.537,39.537,0,0,1,6.78.457,8.709,8.709,0,0,1,4.261,1.953A6.851,6.851,0,0,1,192.316,14a10.361,10.361,0,0,1,.693,3.584V28.295a13.029,13.029,0,0,0,.219,2.68,12.151,12.151,0,0,0,.952,2.482h-8.8a8.177,8.177,0,0,1-.693-1.428,11.388,11.388,0,0,1-.318-1.547,11.989,11.989,0,0,1-3.668,2.505A15.192,15.192,0,0,1,174.917,34q-4.362,0-6.641-2.01a6.344,6.344,0,0,1-2.263-4.95,6.386,6.386,0,0,1,1.635-4.54c1.087-1.187,3.1-2.069,6.03-2.646,3.523-.693,5.8-1.2,6.845-1.473a32.707,32.707,0,0,0,3.318-1.1,3.2,3.2,0,0,0-.718-2.393,3.51,3.51,0,0,0-2.506-.687,6.608,6.608,0,0,0-3.459.722,4.029,4.029,0,0,0-1.443,2.154m8.125,4.879q-1.932.688-4.032,1.215a9.26,9.26,0,0,0-3.623,1.485,2.337,2.337,0,0,0-.785,1.7,2.267,2.267,0,0,0,.782,1.785,3.254,3.254,0,0,0,2.272.709,5.88,5.88,0,0,0,2.9-.758,4.484,4.484,0,0,0,1.921-1.841,6.1,6.1,0,0,0,.563-2.812Zm40.565,11.506h-8.761V29.519A12.622,12.622,0,0,1,211.7,32.97a10.6,10.6,0,0,1-4.9,1.03,8.05,8.05,0,0,1-6.072-2.29q-2.2-2.3-2.2-7.06V9.21h9.422V22.539a4.791,4.791,0,0,0,.856,3.236,3.032,3.032,0,0,0,2.4.97,3.454,3.454,0,0,0,2.754-1.278c.712-.86,1.067-2.382,1.067-4.588V9.21h9.373ZM241.4,0V9.21h5.161v6.807H241.4V24.6a4.484,4.484,0,0,0,.312,2.05,1.71,1.71,0,0,0,1.6.773,11.031,11.031,0,0,0,2.909-.58l.689,6.4a30.4,30.4,0,0,1-6.5.756,11.487,11.487,0,0,1-5.163-.891,5.456,5.456,0,0,1-2.452-2.7,15.869,15.869,0,0,1-.785-5.876V16.017h-3.462V9.21h3.462V4.762Zm8.482,21.408a12.134,12.134,0,0,1,3.782-9.156q3.77-3.576,10.2-3.574,7.349,0,11.1,4.22A12.147,12.147,0,0,1,278,21.262a12.11,12.11,0,0,1-3.751,9.165Q270.508,34,263.887,34a14.618,14.618,0,0,1-9.541-2.978,11.866,11.866,0,0,1-4.461-9.614m9.4-.026a7.23,7.23,0,0,0,1.322,4.785,4.368,4.368,0,0,0,6.66.031c.875-1.019,1.3-2.658,1.3-4.907a7.1,7.1,0,0,0-1.309-4.683,4.118,4.118,0,0,0-3.253-1.555,4.268,4.268,0,0,0-3.387,1.568,7.169,7.169,0,0,0-1.333,4.761" transform="translate(0 0)" fill="#175b58"/>
    </g>
  </g>
</svg>
